# xmcd CD database file
#
# Track frame offsets:
#	150
#	12815
#	27327
#	42907
#	55636
#	70408
#	82188
#	100306
#	114061
#	127038
#	144473
#	155428
#	170773
#	185651
#	199093
#
# Disc length: 2886 seconds
#
# Revision: 9
# Processed by: cddbd v1.5.2PL0 Copyright (c) Steve Scherf et al.
# Submitted via: CDex 1.51
#
DISCID=ce0b440f
DTITLE=Johnny Cash - Unearthed  Vol  3 - Redemption Songs
DYEAR=2003
DGENRE=Country
TTITLE0=A Singer Of Songs
TTITLE1=The L and N Don't Stop Here Anymore
TTITLE2=Redemption Song[w. Joe Strummer]
TTITLE3=Father And Son[w. Fiona Apple]
TTITLE4=Chattanooga Sugar Babe
TTITLE5=He Stopped Loving Her Today
TTITLE6=Hard Times
TTITLE7=Wichita Lineman
TTITLE8=Cindy[w. Nick Cave]
TTITLE9=Big Iron
TTITLE10=Salty Dog
TTITLE11=Gentle On My Mind[w. Glen Campbell]
TTITLE12=You Are My Sunshine
TTITLE13=You'll Never Walk Alone
TTITLE14=The Man Comes Around[Early]
EXTD=YEAR: 2003
EXTT0=
EXTT1=
EXTT2=
EXTT3=
EXTT4=
EXTT5=
EXTT6=
EXTT7=
EXTT8=
EXTT9=
EXTT10=
EXTT11=
EXTT12=
EXTT13=
EXTT14=
PLAYORDER=
